<?xml version="1.0" encoding="UTF-8" standalone="no"?>
<!DOCTYPE svg PUBLIC "-//W3C//DTD SVG 1.1//EN"
 "http://www.w3.org/Graphics/SVG/1.1/DTD/svg11.dtd">
<!-- Generated by graphviz version 2.43.0 (0)
 -->
<!-- Title: %3 Pages: 1 -->
<svg width="221pt" height="137pt"
 viewBox="0.00 0.00 220.76 136.95" xmlns="http://www.w3.org/2000/svg" xmlns:xlink="http://www.w3.org/1999/xlink">
<g id="graph0" class="graph" transform="scale(1 1) rotate(0) translate(4 132.95)">
<title>%3</title>
<polygon fill="white" stroke="transparent" points="-4,4 -4,-132.95 216.76,-132.95 216.76,4 -4,4"/>
<!-- distance -->
<g id="node1" class="node">
<title>distance</title>
<polygon fill="lightgray" stroke="black" points="109.48,-128.95 53.48,-128.95 53.48,-110.95 109.48,-110.95 109.48,-128.95"/>
<text text-anchor="middle" x="81.48" y="-117.75" font-family="Times,serif" font-size="9.00">distance</text>
</g>
<!-- forward -->
<g id="node3" class="node">
<title>forward</title>
<ellipse fill="lightblue" stroke="black" cx="37.48" cy="-37.48" rx="37.45" ry="37.45"/>
<text text-anchor="middle" x="37.48" y="-35.28" font-family="Times,serif" font-size="9.00">forward</text>
</g>
<!-- distance&#45;&gt;forward -->
<g id="edge1" class="edge">
<title>distance&#45;&gt;forward</title>
<path fill="none" stroke="red" stroke-width="0.31" d="M77.1,-110.94C73.01,-103.47 66.58,-91.7 60.08,-79.82"/>
<polygon fill="red" stroke="red" stroke-width="0.31" points="63,-77.86 55.13,-70.77 56.86,-81.22 63,-77.86"/>
</g>
<!-- left -->
<g id="node4" class="node">
<title>left</title>
<ellipse fill="lightblue" stroke="black" cx="115.48" cy="-37.48" rx="22.76" ry="22.76"/>
<text text-anchor="middle" x="115.48" y="-35.28" font-family="Times,serif" font-size="9.00">left</text>
</g>
<!-- distance&#45;&gt;left -->
<g id="edge2" class="edge">
<title>distance&#45;&gt;left</title>
<path fill="none" stroke="red" stroke-width="0.14" d="M84.86,-110.94C89.05,-101.03 96.42,-83.58 102.88,-68.29"/>
<polygon fill="red" stroke="red" stroke-width="0.14" points="106.28,-69.23 106.95,-58.65 99.84,-66.5 106.28,-69.23"/>
</g>
<!-- right -->
<g id="node5" class="node">
<title>right</title>
<ellipse fill="lightblue" stroke="black" cx="184.48" cy="-37.48" rx="28.07" ry="28.07"/>
<text text-anchor="middle" x="184.48" y="-35.28" font-family="Times,serif" font-size="9.00">right</text>
</g>
<!-- distance&#45;&gt;right -->
<g id="edge3" class="edge">
<title>distance&#45;&gt;right</title>
<path fill="none" stroke="red" stroke-width="0.43" d="M95.15,-110.9C108.88,-102.57 130.39,-88.86 147.48,-74.95 151.04,-72.06 154.64,-68.87 158.14,-65.62"/>
<polygon fill="red" stroke="red" stroke-width="0.43" points="160.75,-67.96 165.54,-58.51 155.9,-62.91 160.75,-67.96"/>
</g>
<!-- angle -->
<g id="node2" class="node">
<title>angle</title>
<polygon fill="lightgray" stroke="black" points="169.48,-128.95 127.48,-128.95 127.48,-110.95 169.48,-110.95 169.48,-128.95"/>
<text text-anchor="middle" x="148.48" y="-117.75" font-family="Times,serif" font-size="9.00">angle</text>
</g>
<!-- angle&#45;&gt;forward -->
<g id="edge4" class="edge">
<title>angle&#45;&gt;forward</title>
<path fill="none" stroke="red" stroke-width="0.29" d="M135.82,-110.79C122.58,-102.16 101.28,-88.01 83.48,-74.95 80.51,-72.78 77.46,-70.49 74.42,-68.16"/>
<polygon fill="red" stroke="red" stroke-width="0.29" points="76.47,-65.32 66.42,-61.97 72.18,-70.86 76.47,-65.32"/>
</g>
<!-- angle&#45;&gt;left -->
<g id="edge5" class="edge">
<title>angle&#45;&gt;left</title>
<path fill="none" stroke="red" stroke-width="0.22" d="M145.19,-110.94C141.13,-101.03 133.97,-83.58 127.7,-68.29"/>
<polygon fill="red" stroke="red" stroke-width="0.22" points="130.78,-66.58 123.75,-58.65 124.31,-69.23 130.78,-66.58"/>
</g>
<!-- angle&#45;&gt;right -->
<g id="edge6" class="edge">
<title>angle&#45;&gt;right</title>
<path fill="none" stroke="red" stroke-width="0.15" d="M152.06,-110.94C156.05,-102.03 162.76,-87.02 169.05,-72.97"/>
<polygon fill="red" stroke="red" stroke-width="0.15" points="172.4,-74.04 173.29,-63.48 166.01,-71.18 172.4,-74.04"/>
</g>
</g>
</svg>
