<?xml version="1.0" encoding="UTF-8" standalone="no"?>
<!DOCTYPE svg PUBLIC "-//W3C//DTD SVG 1.1//EN"
 "http://www.w3.org/Graphics/SVG/1.1/DTD/svg11.dtd">
<!-- Generated by graphviz version 2.43.0 (0)
 -->
<!-- Title: %3 Pages: 1 -->
<svg width="198pt" height="150pt"
 viewBox="0.00 0.00 198.28 150.07" xmlns="http://www.w3.org/2000/svg" xmlns:xlink="http://www.w3.org/1999/xlink">
<g id="graph0" class="graph" transform="scale(1 1) rotate(0) translate(4 146.07)">
<title>%3</title>
<polygon fill="white" stroke="transparent" points="-4,4 -4,-146.07 194.28,-146.07 194.28,4 -4,4"/>
<!-- distance -->
<g id="node1" class="node">
<title>distance</title>
<polygon fill="lightgray" stroke="black" points="56,-122.78 0,-122.78 0,-104.78 56,-104.78 56,-122.78"/>
<text text-anchor="middle" x="28" y="-111.58" font-family="Times,serif" font-size="9.00">distance</text>
</g>
<!-- angle -->
<g id="node2" class="node">
<title>angle</title>
<polygon fill="lightgray" stroke="black" points="116,-122.78 74,-122.78 74,-104.78 116,-104.78 116,-122.78"/>
<text text-anchor="middle" x="95" y="-111.58" font-family="Times,serif" font-size="9.00">angle</text>
</g>
<!-- left -->
<g id="node3" class="node">
<title>left</title>
<ellipse fill="lightblue" stroke="black" cx="62" cy="-24.75" rx="22.76" ry="22.76"/>
<text text-anchor="middle" x="62" y="-22.55" font-family="Times,serif" font-size="9.00">left</text>
</g>
<!-- angle&#45;&gt;left -->
<g id="edge1" class="edge">
<title>angle&#45;&gt;left</title>
<path fill="none" stroke="green" stroke-width="0.27" d="M91.95,-104.75C87.77,-93.7 80,-73.22 73.42,-55.88"/>
<polygon fill="green" stroke="green" stroke-width="0.27" points="76.54,-54.24 69.73,-46.13 70,-56.72 76.54,-54.24"/>
</g>
<!-- 394 -->
<g id="node5" class="node">
<title>394</title>
<ellipse fill="white" stroke="black" cx="127" cy="-24.75" rx="25" ry="25"/>
<text text-anchor="middle" x="127" y="-22.55" font-family="Times,serif" font-size="9.00">394</text>
</g>
<!-- angle&#45;&gt;394 -->
<g id="edge2" class="edge">
<title>angle&#45;&gt;394</title>
<path fill="none" stroke="green" stroke-width="0.39" d="M97.95,-104.75C101.86,-94.13 108.98,-74.77 115.19,-57.88"/>
<polygon fill="green" stroke="green" stroke-width="0.39" points="118.54,-58.9 118.71,-48.3 111.97,-56.48 118.54,-58.9"/>
</g>
<!-- right -->
<g id="node4" class="node">
<title>right</title>
<ellipse fill="lightblue" stroke="black" cx="162" cy="-113.78" rx="28.07" ry="28.07"/>
<text text-anchor="middle" x="162" y="-111.58" font-family="Times,serif" font-size="9.00">right</text>
</g>
</g>
</svg>
