<?xml version="1.0" encoding="UTF-8" standalone="no"?>
<!DOCTYPE svg PUBLIC "-//W3C//DTD SVG 1.1//EN"
 "http://www.w3.org/Graphics/SVG/1.1/DTD/svg11.dtd">
<!-- Generated by graphviz version 2.43.0 (0)
 -->
<!-- Title: %3 Pages: 1 -->
<svg width="221pt" height="137pt"
 viewBox="0.00 0.00 220.76 136.95" xmlns="http://www.w3.org/2000/svg" xmlns:xlink="http://www.w3.org/1999/xlink">
<g id="graph0" class="graph" transform="scale(1 1) rotate(0) translate(4 132.95)">
<title>%3</title>
<polygon fill="white" stroke="transparent" points="-4,4 -4,-132.95 216.76,-132.95 216.76,4 -4,4"/>
<!-- distance -->
<g id="node1" class="node">
<title>distance</title>
<polygon fill="lightgray" stroke="black" points="104.48,-128.95 48.48,-128.95 48.48,-110.95 104.48,-110.95 104.48,-128.95"/>
<text text-anchor="middle" x="76.48" y="-117.75" font-family="Times,serif" font-size="9.00">distance</text>
</g>
<!-- forward -->
<g id="node3" class="node">
<title>forward</title>
<ellipse fill="lightblue" stroke="black" cx="37.48" cy="-37.48" rx="37.45" ry="37.45"/>
<text text-anchor="middle" x="37.48" y="-35.28" font-family="Times,serif" font-size="9.00">forward</text>
</g>
<!-- distance&#45;&gt;forward -->
<g id="edge1" class="edge">
<title>distance&#45;&gt;forward</title>
<path fill="none" stroke="green" stroke-width="0.63" d="M72.59,-110.94C69.07,-103.66 63.57,-92.33 57.97,-80.76"/>
<polygon fill="green" stroke="green" stroke-width="0.63" points="61,-78.99 53.49,-71.51 54.7,-82.04 61,-78.99"/>
</g>
<!-- left -->
<g id="node4" class="node">
<title>left</title>
<ellipse fill="lightblue" stroke="black" cx="115.48" cy="-37.48" rx="22.76" ry="22.76"/>
<text text-anchor="middle" x="115.48" y="-35.28" font-family="Times,serif" font-size="9.00">left</text>
</g>
<!-- distance&#45;&gt;left -->
<g id="edge2" class="edge">
<title>distance&#45;&gt;left</title>
<path fill="none" stroke="red" stroke-width="0.52" d="M80.36,-110.94C85.24,-100.87 93.89,-83.01 101.39,-67.55"/>
<polygon fill="red" stroke="red" stroke-width="0.52" points="104.65,-68.85 105.86,-58.32 98.35,-65.79 104.65,-68.85"/>
</g>
<!-- angle -->
<g id="node2" class="node">
<title>angle</title>
<polygon fill="lightgray" stroke="black" points="205.48,-128.95 163.48,-128.95 163.48,-110.95 205.48,-110.95 205.48,-128.95"/>
<text text-anchor="middle" x="184.48" y="-117.75" font-family="Times,serif" font-size="9.00">angle</text>
</g>
<!-- right -->
<g id="node5" class="node">
<title>right</title>
<ellipse fill="lightblue" stroke="black" cx="184.48" cy="-37.48" rx="28.07" ry="28.07"/>
<text text-anchor="middle" x="184.48" y="-35.28" font-family="Times,serif" font-size="9.00">right</text>
</g>
<!-- angle&#45;&gt;right -->
<g id="edge3" class="edge">
<title>angle&#45;&gt;right</title>
<path fill="none" stroke="red" stroke-width="0.36" d="M184.48,-110.94C184.48,-102.72 184.48,-89.33 184.48,-76.27"/>
<polygon fill="red" stroke="red" stroke-width="0.36" points="187.98,-75.99 184.48,-65.99 180.98,-75.99 187.98,-75.99"/>
</g>
</g>
</svg>
